<?xml version="1.0" standalone="no"?>
<!DOCTYPE svg PUBLIC "-//W3C//DTD SVG 20010904//EN"
 "http://www.w3.org/TR/2001/REC-SVG-20010904/DTD/svg10.dtd">
<svg version="1.0" xmlns="http://www.w3.org/2000/svg"
 width="512.000000pt" height="512.000000pt" viewBox="0 0 512.000000 512.000000"
 preserveAspectRatio="xMidYMid meet">
<metadata>
Created by potrace 1.14, written by Peter Selinger 2001-2017
</metadata>
<g transform="translate(0.000000,512.000000) scale(0.100000,-0.100000)"
fill="#000000" stroke="none">
<path d="M2465 4760 c-1555 -6 -1428 1 -1473 -78 -22 -39 -22 -45 -22 -405 l0
-365 50 1 50 2 0 350 c0 301 2 354 16 373 l15 22 1371 0 c1257 0 1373 -2 1390
-17 17 -15 18 -54 19 -732 0 -652 2 -712 15 -666 9 28 31 100 50 160 l34 110
0 562 c0 333 -4 572 -10 587 -12 33 -68 86 -91 86 -9 0 -19 3 -21 8 -1 4 -628
5 -1393 2z"/>
<path d="M4385 4191 c-21 -9 -36 -34 -53 -88 -10 -29 -8 -32 17 -42 14 -7 47
-29 71 -51 25 -22 48 -40 51 -40 17 0 49 148 39 176 -16 41 -79 63 -125 45z"/>
<path d="M1679 4172 c-11 -7 -19 -24 -19 -36 0 -51 3 -51 449 -52 229 -1 421
-3 426 -4 6 -1 15 -1 20 0 6 2 204 4 442 4 386 1 434 3 449 17 21 21 11 78
-14 80 -9 1 -403 2 -876 3 -693 1 -862 -1 -877 -12z"/>
<path d="M4216 3959 l-17 -51 31 -31 c16 -17 36 -43 42 -59 7 -15 16 -28 19
-28 23 0 124 -290 103 -297 -5 -2 -8 -43 -7 -91 1 -49 -5 -124 -14 -168 -28
-149 -153 -488 -193 -524 -26 -24 -39 -53 -54 -127 -13 -59 -13 -70 0 -83 22
-22 35 -2 104 160 73 169 79 185 130 347 38 117 43 138 55 201 3 15 7 36 10
48 18 80 22 175 12 279 -6 58 -3 84 17 150 13 44 22 95 20 114 -10 80 -143
211 -215 211 -23 0 -29 -7 -43 -51z"/>
<path d="M1686 3875 c-29 -14 -33 -59 -7 -77 29 -20 1740 -20 1764 1 21 17 22
41 3 67 -14 19 -35 19 -877 19 -574 0 -869 -3 -883 -10z"/>
<path d="M1184 3861 c-16 -10 -34 -24 -41 -32 -9 -11 -47 -14 -187 -14 l-176
0 0 -51 0 -50 176 0 175 0 24 -27 c87 -93 239 14 180 127 -8 15 -12 33 -8 39
3 6 1 7 -6 3 -6 -4 -18 -3 -25 3 -23 19 -82 20 -112 2z"/>
<path d="M4168 3798 c-3 -13 -36 -122 -72 -243 -37 -121 -92 -301 -121 -400
-109 -362 -147 -490 -150 -505 -2 -8 -24 -82 -48 -165 -49 -167 -49 -158 13
-255 19 -30 37 -59 40 -65 3 -5 30 -43 60 -83 l55 -73 16 38 c8 21 38 113 64
205 31 103 53 164 60 160 5 -3 2 5 -8 18 -39 55 -42 81 -22 190 9 47 45 130
57 130 23 0 124 256 169 429 24 93 29 132 27 206 -1 50 2 96 6 103 4 7 2 36
-4 65 -14 61 -93 227 -119 251 -17 16 -19 16 -23 -6z"/>
<path d="M981 3612 c-8 -3 -11 -77 -11 -261 l0 -258 50 1 50 0 0 261 0 261
-39 0 c-21 0 -43 -2 -50 -4z"/>
<path d="M1686 3575 c-12 -6 -22 -22 -24 -37 -6 -54 3 -55 456 -54 228 1 416
-2 419 -7 2 -4 12 -3 21 1 9 5 208 8 440 7 446 -1 462 1 462 44 0 9 -6 26 -14
36 -14 19 -36 20 -877 20 -570 0 -870 -3 -883 -10z"/>
<path d="M1679 3272 c-20 -14 -26 -57 -9 -67 6 -4 8 -10 6 -13 -2 -4 391 -7
873 -7 929 0 911 -1 911 44 0 10 -6 26 -14 36 -14 19 -37 20 -881 20 -698 0
-871 -3 -886 -13z"/>
<path d="M1200 3052 c-8 -2 -28 -16 -43 -31 -28 -26 -30 -26 -185 -27 -86 -1
-165 -2 -174 -3 -15 -1 -18 -10 -18 -49 l0 -48 175 0 c169 0 175 0 196 -22 43
-47 104 -51 161 -11 52 37 43 147 -15 178 -26 13 -76 20 -97 13z"/>
<path d="M975 2791 c-3 -2 -5 -120 -5 -261 l0 -256 49 0 50 -1 3 76 c2 42 1
159 -2 261 l-5 185 -43 1 c-23 0 -45 -2 -47 -5z"/>
<path d="M1184 2222 c-16 -8 -34 -22 -41 -31 -10 -14 -38 -16 -185 -16 l-173
0 0 -50 0 -50 172 0 172 -1 29 -27 c80 -77 208 -11 188 97 -7 36 -49 85 -75
87 -9 1 -25 3 -37 4 -12 1 -34 -5 -50 -13z"/>
<path d="M3696 2209 c-3 -8 -19 -61 -35 -119 -42 -146 -54 -184 -61 -190 -3
-3 -6 -16 -8 -30 -1 -14 -18 -74 -38 -135 -48 -149 -134 -434 -140 -465 -3
-14 -9 -38 -14 -55 -39 -124 -63 -313 -64 -505 0 -112 2 -135 14 -135 19 0
152 198 207 308 39 77 129 290 139 327 3 13 66 214 189 603 l34 109 -49 62
c-27 34 -76 102 -109 151 -36 52 -62 82 -65 74z"/>
<path d="M974 1971 c-2 -2 -4 -120 -4 -262 l0 -257 50 1 50 2 -2 260 -3 260
-43 0 c-24 0 -46 -2 -48 -4z"/>
<path d="M3972 1769 c-1 -9 -15 -56 -30 -105 -67 -208 -62 -155 -62 -712 0
-451 -2 -512 -16 -526 -14 -14 -153 -16 -1387 -16 -847 0 -1378 4 -1387 10
-13 8 -15 62 -18 367 -2 251 -6 359 -14 364 -10 6 -26 6 -81 0 -4 -1 -7 -164
-7 -364 1 -304 3 -368 16 -392 19 -37 46 -62 79 -75 17 -6 526 -10 1412 -10
1533 0 1427 -5 1476 64 22 31 22 35 27 486 4 387 -1 961 -8 909z"/>
<path d="M1195 1408 c-11 -6 -31 -21 -45 -33 -24 -21 -33 -22 -198 -21 l-172
1 0 -50 0 -51 175 1 175 0 25 -27 c33 -35 81 -44 128 -24 69 29 87 121 33 179
-26 28 -90 42 -121 25z"/>
</g>
</svg>
